{"title":"Alice in Chains MTV Unplugged DVDRip","uid":6062057,"size":715560960,"categoryP":"video","categoryS":"music_videos","magnet":"?xt=urn:btih:6dcdb3dffe19767f7232f63bdec145c49f6f1563&amp;dn=Alice+in+Chains+MTV+Unplugged+DVDRip&amp;tr=udp%3A%2F%2Ftracker.openbittorrent.com%3A80&amp;tr=udp%3A%2F%2Fopen.demonii.com%3A1337&amp;tr=udp%3A%2F%2Ftracker.coppersurfer.tk%3A6969&amp;tr=udp%3A%2F%2Fexodus.desync.com%3A6969","seeders":0,"leechers":1,"uploader":"bhobson333","files":1,"time":1293171283,"description":"Another of my bloat reductions.  This was only available as a 4.2 GB download of a PAL DVD.  Now it's a 700 MB AVI.  I'm sorry I couldn't save the 5.1 audio track, but the audio is high quality.\n\nGeneral\nComplete name                    : AliceinChainsMTVUnpluggedDVDRip.avi\nFormat                           : AVI\nFormat/Info                      : Audio Video Interleave\nFile size                        : 682 MiB\nDuration                         : 1h 13mn\nOverall bit rate                 : 1 299 Kbps\nWriting application              : VirtualDubMod 1.5.10.2 (build 2540/release)\nWriting library                  : VirtualDubMod build 2540/release\n\nVideo\nID                               : 0\nFormat                           : MPEG-4 Visual\nFormat profile                   : Advanced Simple@L5\nFormat settings, BVOP            : Yes\nFormat settings, QPel            : No\nFormat settings, GMC             : No warppoints\nFormat settings, Matrix          : Default (H.263)\nMuxing mode                      : Packed bitstream\nCodec ID                         : XVID\nCodec ID/Hint                    : XviD\nDuration                         : 1h 13mn\nBit rate                         : 1 029 Kbps\nWidth                            : 480 pixels\nHeight                           : 368 pixels\nDisplay aspect ratio             : 4:3\nFrame rate                       : 25.000 fps\nResolution                       : 8 bits\nColorimetry                      : 4:2:0\nScan type                        : Progressive\nBits/(Pixel*Frame)               : 0.233\nStream size                      : 541 MiB (79%)\nWriting library                  : XviD 1.0.3 (UTC 2004-12-20)\n\nAudio\nID                               : 1\nFormat                           : MPEG Audio\nFormat version                   : Version 1\nFormat profile                   : Layer 3\nMode                             : Joint stereo\nFormat_Settings_ModeExtension    : MS Stereo\nCodec ID                         : 55\nCodec ID/Hint                    : MP3\nDuration                         : 1h 13mn\nBit rate mode                    : Variable\nBit rate                         : 256 Kbps\nChannel(s)                       : 2 channels\nSampling rate                    : 48.0 KHz\nStream size                      : 135 MiB (20%)\nAlignment                        : Aligned on interleaves\nInterleave, duration             : 24 ms (0.60 video frame)\nInterleave, preload duration     : 71 ms\nWriting library                  : LAME3.90.\nEncoding settings                : -m j -V 4 -q 2 -lowpass 20.6 --abr\n\n","torrent":{"xt":"urn:btih:6dcdb3dffe19767f7232f63bdec145c49f6f1563","amp;dn":"Alice+in+Chains+MTV+Unplugged+DVDRip","amp;tr":["udp%3A%2F%2Ftracker.openbittorrent.com%3A80","udp%3A%2F%2Fopen.demonii.com%3A1337","udp%3A%2F%2Ftracker.coppersurfer.tk%3A6969","udp%3A%2F%2Fexodus.desync.com%3A6969"],"infoHash":"6dcdb3dffe19767f7232f63bdec145c49f6f1563","infoHashBuffer":{"type":"Buffer","data":[109,205,179,223,254,25,118,127,114,50,246,59,222,193,69,196,159,111,21,99]},"announce":[],"urlList":[]}}